<svg xmlns="http://www.w3.org/2000/svg" viewBox="0 0 1600 1000" preserveAspectRatio="xMidYMid slice">
  <circle cx="550.7" cy="976.2" r="2.29" fill="#fdf8ff" opacity="0.68"/><circle cx="363.9" cy="646.9" r="0.30" fill="#fdf8ff" opacity="0.60"/><circle cx="622.4" cy="354.8" r="2.62" fill="#fdf8ff" opacity="0.56"/><circle cx="1489.8" cy="454.8" r="1.61" fill="#fdf8ff" opacity="0.82"/><circle cx="227.9" cy="590.4" r="0.26" fill="#fdf8ff" opacity="0.89"/><circle cx="60.9" cy="807.7" r="0.27" fill="#fdf8ff" opacity="0.79"/><circle cx="53.5" cy="910.7" r="0.28" fill="#fdf8ff" opacity="0.90"/><circle cx="1228.3" cy="257.3" r="0.25" fill="#fdf8ff" opacity="0.82"/><circle cx="547.2" cy="451.9" r="2.36" fill="#fdf8ff" opacity="0.93"/><circle cx="781.7" cy="635.9" r="0.46" fill="#fdf8ff" opacity="0.65"/><circle cx="697.2" cy="330.7" r="1.72" fill="#fdf8ff" opacity="0.91"/><circle cx="777.1" cy="34.9" r="1.59" fill="#fdf8ff" opacity="0.81"/><circle cx="909.6" cy="29.7" r="2.28" fill="#fdf8ff" opacity="0.74"/><circle cx="465.2" cy="95.8" r="1.05" fill="#fdf8ff" opacity="0.70"/><circle cx="386.7" cy="94.1" r="0.31" fill="#fdf8ff" opacity="0.64"/><circle cx="919.4" cy="613.8" r="1.28" fill="#fdf8ff" opacity="0.56"/><circle cx="205.1" cy="141.6" r="0.83" fill="#fdf8ff" opacity="0.61"/><circle cx="964.3" cy="453.7" r="0.27" fill="#fdf8ff" opacity="0.64"/><circle cx="893.9" cy="185.0" r="1.88" fill="#fdf8ff" opacity="0.62"/><circle cx="403.0" cy="778.4" r="0.71" fill="#fdf8ff" opacity="0.60"/><circle cx="912.8" cy="266.4" r="0.52" fill="#fdf8ff" opacity="0.72"/><circle cx="946.0" cy="590.0" r="1.03" fill="#fdf8ff" opacity="0.92"/><circle cx="830.1" cy="405.1" r="0.29" fill="#fdf8ff" opacity="0.67"/><circle cx="39.2" cy="583.3" r="2.06" fill="#fdf8ff" opacity="0.56"/><circle cx="400.9" cy="856.6" r="0.32" fill="#fdf8ff" opacity="0.68"/><circle cx="1591.5" cy="311.8" r="0.35" fill="#fdf8ff" opacity="0.62"/><circle cx="1345.4" cy="685.8" r="2.78" fill="#fdf8ff" opacity="0.56"/><circle cx="403.7" cy="666.3" r="1.08" fill="#fdf8ff" opacity="0.67"/><circle cx="1426.7" cy="650.8" r="2.79" fill="#fdf8ff" opacity="0.65"/><circle cx="1095.9" cy="665.8" r="2.41" fill="#fdf8ff" opacity="0.61"/><circle cx="629.2" cy="401.0" r="0.36" fill="#fdf8ff" opacity="0.80"/><circle cx="1136.2" cy="560.9" r="1.22" fill="#fdf8ff" opacity="0.89"/><circle cx="236.6" cy="986.2" r="2.68" fill="#fdf8ff" opacity="0.83"/><circle cx="368.4" cy="250.0" r="0.28" fill="#fdf8ff" opacity="0.63"/><circle cx="1209.8" cy="679.4" r="0.35" fill="#fdf8ff" opacity="0.90"/><circle cx="240.4" cy="8.1" r="0.27" fill="#fdf8ff" opacity="0.85"/><circle cx="265.8" cy="111.2" r="1.59" fill="#fdf8ff" opacity="0.64"/><circle cx="732.2" cy="527.0" r="0.30" fill="#fdf8ff" opacity="0.87"/><circle cx="1254.7" cy="717.2" r="1.15" fill="#fdf8ff" opacity="0.95"/><circle cx="1384.1" cy="269.8" r="0.57" fill="#fdf8ff" opacity="0.58"/><circle cx="238.7" cy="497.8" r="0.45" fill="#fdf8ff" opacity="0.59"/><circle cx="24.7" cy="136.1" r="0.25" fill="#fdf8ff" opacity="0.67"/><circle cx="270.1" cy="90.3" r="0.84" fill="#fdf8ff" opacity="0.69"/><circle cx="399.1" cy="440.8" r="0.34" fill="#fdf8ff" opacity="0.80"/><circle cx="1469.1" cy="154.1" r="0.30" fill="#fdf8ff" opacity="0.67"/><circle cx="1497.2" cy="205.6" r="1.38" fill="#fdf8ff" opacity="0.83"/>
  <g opacity="0.63" transform="translate(129.6 136.4)">
      <circle r="2.2" fill="#fff"/>
      <path d="M-14.818936359370127 0H14.818936359370127M0 -14.818936359370127V14.818936359370127" stroke="#dbe8ff" stroke-width="1.4" stroke-linecap="round"/>
      <circle r="7" fill="#9fc2ff" opacity="0.3"/></g><g opacity="0.82" transform="translate(616.5 719.7)">
      <circle r="2.2" fill="#fff"/>
      <path d="M-16.838481306331232 0H16.838481306331232M0 -16.838481306331232V16.838481306331232" stroke="#dbe8ff" stroke-width="1.4" stroke-linecap="round"/>
      <circle r="7" fill="#9fc2ff" opacity="0.3"/></g><g opacity="0.55" transform="translate(765.8 866.9)">
      <circle r="2.2" fill="#fff"/>
      <path d="M-12.269286306807771 0H12.269286306807771M0 -12.269286306807771V12.269286306807771" stroke="#dbe8ff" stroke-width="1.4" stroke-linecap="round"/>
      <circle r="7" fill="#9fc2ff" opacity="0.3"/></g><g opacity="0.70" transform="translate(392.9 639.3)">
      <circle r="2.2" fill="#fff"/>
      <path d="M-19.360253443242982 0H19.360253443242982M0 -19.360253443242982V19.360253443242982" stroke="#dbe8ff" stroke-width="1.4" stroke-linecap="round"/>
      <circle r="7" fill="#9fc2ff" opacity="0.3"/></g><g opacity="0.58" transform="translate(576.9 853.7)">
      <circle r="2.2" fill="#fff"/>
      <path d="M-17.947607033187523 0H17.947607033187523M0 -17.947607033187523V17.947607033187523" stroke="#dbe8ff" stroke-width="1.4" stroke-linecap="round"/>
      <circle r="7" fill="#9fc2ff" opacity="0.3"/></g><g opacity="0.66" transform="translate(792.5 861.3)">
      <circle r="2.2" fill="#fff"/>
      <path d="M-13.666990797268227 0H13.666990797268227M0 -13.666990797268227V13.666990797268227" stroke="#dbe8ff" stroke-width="1.4" stroke-linecap="round"/>
      <circle r="7" fill="#9fc2ff" opacity="0.3"/></g><g opacity="0.56" transform="translate(884.8 805.7)">
      <circle r="2.2" fill="#fff"/>
      <path d="M-12.285682214656845 0H12.285682214656845M0 -12.285682214656845V12.285682214656845" stroke="#dbe8ff" stroke-width="1.4" stroke-linecap="round"/>
      <circle r="7" fill="#9fc2ff" opacity="0.3"/></g><g opacity="0.71" transform="translate(513.1 551.6)">
      <circle r="2.2" fill="#fff"/>
      <path d="M-15.701799066038802 0H15.701799066038802M0 -15.701799066038802V15.701799066038802" stroke="#dbe8ff" stroke-width="1.4" stroke-linecap="round"/>
      <circle r="7" fill="#9fc2ff" opacity="0.3"/></g><g opacity="0.82" transform="translate(1128.7 283.8)">
      <circle r="2.2" fill="#fff"/>
      <path d="M-10.907373164081946 0H10.907373164081946M0 -10.907373164081946V10.907373164081946" stroke="#dbe8ff" stroke-width="1.4" stroke-linecap="round"/>
      <circle r="7" fill="#9fc2ff" opacity="0.3"/></g>
</svg>
