<svg xmlns="http://www.w3.org/2000/svg" viewBox="0 0 520 520">
  <defs>
  <radialGradient id="body-j" cx="36%" cy="32%" r="80%">
    <stop offset="0%" stop-color="#e7cfa8"/><stop offset="52%" stop-color="#cf9a67"/><stop offset="100%" stop-color="#7c4a2e"/>
  </radialGradient>
  <radialGradient id="term-j" cx="72%" cy="74%" r="72%">
    <stop offset="45%" stop-color="#000010" stop-opacity="0"/><stop offset="100%" stop-color="#01030a" stop-opacity="0.72"/>
  </radialGradient>
  <radialGradient id="atmo-j" cx="50%" cy="50%" r="50%">
    <stop offset="72%" stop-color="#e7cfa8" stop-opacity="0"/><stop offset="90%" stop-color="#e7cfa8" stop-opacity="0.22"/><stop offset="100%" stop-color="#e7cfa8" stop-opacity="0"/>
  </radialGradient>
    <clipPath id="cj"><circle cx="260" cy="260" r="196"/></clipPath>
  </defs>
  <circle cx="260" cy="260" r="220" fill="url(#atmo-j)"/>
  <g clip-path="url(#cj)">
    <circle cx="260" cy="260" r="196" fill="url(#body-j)"/>
    <ellipse cx="260" cy="140" rx="196" ry="30" fill="#f0e0c6" opacity="0.7"/>
    <ellipse cx="260" cy="182" rx="196" ry="20" fill="#b97c4f" opacity="0.6"/>
    <ellipse cx="260" cy="226" rx="196" ry="26" fill="#eddabb" opacity="0.7"/>
    <ellipse cx="260" cy="266" rx="196" ry="18" fill="#a8683f" opacity="0.55"/>
    <ellipse cx="260" cy="304" rx="196" ry="28" fill="#f2e3c9" opacity="0.6"/>
    <ellipse cx="260" cy="352" rx="196" ry="22" fill="#b07647" opacity="0.55"/>
    <ellipse cx="260" cy="392" rx="196" ry="26" fill="#e9d6b6" opacity="0.5"/>
    <ellipse cx="202" cy="300" rx="40" ry="24" fill="#b5442e" opacity="0.9"/>
    <ellipse cx="202" cy="300" rx="22" ry="12" fill="#d9694a" opacity="0.8"/>
    <circle cx="260" cy="260" r="196" fill="url(#term-j)"/>
  </g>
  <circle cx="260" cy="260" r="196" fill="none" stroke="#ffe9c8" stroke-opacity="0.2" stroke-width="2"/>
</svg>
