<svg xmlns="http://www.w3.org/2000/svg" viewBox="0 0 640 640">
  <defs>
    <radialGradient id="atmo" cx="50%" cy="50%" r="50%">
      <stop offset="70%" stop-color="#93c8ff" stop-opacity="0"/>
      <stop offset="85%" stop-color="#93c8ff" stop-opacity="0.28"/>
      <stop offset="100%" stop-color="#93c8ff" stop-opacity="0"/>
    </radialGradient>
    <radialGradient id="ocean" cx="36%" cy="32%" r="80%">
      <stop offset="0%" stop-color="#3b7fc4"/>
      <stop offset="50%" stop-color="#1d548f"/>
      <stop offset="100%" stop-color="#0a2542"/>
    </radialGradient>
    <radialGradient id="night" cx="74%" cy="72%" r="70%">
      <stop offset="46%" stop-color="#000010" stop-opacity="0"/>
      <stop offset="100%" stop-color="#01030a" stop-opacity="0.86"/>
    </radialGradient>
    <clipPath id="g"><circle cx="320" cy="320" r="210"/></clipPath>
  </defs>
  <circle cx="320" cy="320" r="240" fill="url(#atmo)"/>
  <g clip-path="url(#g)">
    <circle cx="320" cy="320" r="210" fill="url(#ocean)"/>
    <g>
      <path d="M232 168 q40 -30 92 -22 q52 8 60 44 q8 40 -34 66 q-46 28 -104 12 q-52 -16 -46 -60 q4 -30 32 -46z" fill="#357a49" opacity="1"/>
      <path d="M170 300 q34 -22 74 -10 q40 12 40 46 q0 40 -44 58 q-52 20 -84 -10 q-26 -26 -12 -58 q10 -22 26 -26z" fill="#3f8350" opacity="1"/>
      <path d="M330 316 q46 -16 82 8 q30 20 20 52 q-14 40 -66 42 q-56 2 -74 -34 q-14 -30 8 -52 q14 -12 30 -16z" fill="#2f7043" opacity="1"/>
      <path d="M300 150 q30 -12 52 6 q16 16 6 36 q-16 26 -50 20 q-28 -6 -30 -32 q0 -18 22 -30z" fill="#caa262" opacity="0.9"/>
      <path d="M196 258 q20 -10 36 4 q12 12 2 28 q-16 18 -38 8 q-16 -10 -8 -26 q2 -8 8 -14z" fill="#c39a5c" opacity="0.85"/>
    </g>
    <g fill="#eef4ff">
      <path d="M120 210 q54 -24 110 -4 q46 14 96 2 q-20 30 -84 32 q-84 4 -122 -32z" opacity="0.42"/>
      <path d="M250 372 q44 -18 92 -4 q42 12 78 0 q-16 28 -78 30 q-72 2 -92 -26z" opacity="0.38"/>
      <path d="M330 120 q34 -12 62 2 q-12 20 -46 20 q-24 0 -16 -22z" opacity="0.5"/>
      <path d="M150 150 q30 -10 54 4 q-12 18 -42 16 q-22 -2 -12 -20z" opacity="0.35"/>
    </g>
    <circle cx="320" cy="320" r="210" fill="url(#night)"/>
  </g>
  <circle cx="320" cy="320" r="210" fill="none" stroke="#c3e1ff" stroke-opacity="0.22" stroke-width="2"/>
</svg>
