<svg xmlns="http://www.w3.org/2000/svg" viewBox="0 0 3200 900" preserveAspectRatio="xMidYMax slice">
  <path d="M0 900 L0 496.0 Q 100.0 496.0 200.0 484.7 T 400.0 473.4 Q 500.0 473.4 600.0 469.4 T 800.0 465.4 Q 900.0 465.4 1000.0 480.8 T 1200.0 496.1 Q 1300.0 496.1 1400.0 503.8 T 1600.0 511.4 Q 1700.0 511.4 1800.0 499.7 T 2000.0 488.1 Q 2100.0 488.1 2200.0 476.4 T 2400.0 464.7 Q 2500.0 464.7 2600.0 474.5 T 2800.0 484.3 Q 2900.0 484.3 3000.0 490.2 T 3200.0 496.0 L 3200 900 Z" fill="#6a6d78"/>
  <ellipse cx="1836" cy="519" rx="79" ry="27" fill="#000" opacity="0.14"/><path d="M1757 523 a 79 27 0 0 1 158 0" fill="none" stroke="#c2cbdc" stroke-opacity="0.28" stroke-width="2"/><ellipse cx="2434" cy="508" rx="71" ry="25" fill="#000" opacity="0.14"/><path d="M2363 512 a 71 25 0 0 1 142 0" fill="none" stroke="#c2cbdc" stroke-opacity="0.28" stroke-width="2"/>
  <path d="M0 496.0 Q 100.0 496.0 200.0 484.7 T 400.0 473.4 Q 500.0 473.4 600.0 469.4 T 800.0 465.4 Q 900.0 465.4 1000.0 480.8 T 1200.0 496.1 Q 1300.0 496.1 1400.0 503.8 T 1600.0 511.4 Q 1700.0 511.4 1800.0 499.7 T 2000.0 488.1 Q 2100.0 488.1 2200.0 476.4 T 2400.0 464.7 Q 2500.0 464.7 2600.0 474.5 T 2800.0 484.3 Q 2900.0 484.3 3000.0 490.2 T 3200.0 496.0 " fill="none" stroke="#c2cbdc" stroke-opacity="0.4" stroke-width="3"/>
</svg>
